<svg width="100" height="100" viewBox="0 0 100 100" fill="none" xmlns="http://www.w3.org/2000/svg">
<g clip-path="url(#clip0_7087_5225)">
<circle cx="50" cy="50" r="50" fill="#CBE4E7"/>
</g>
<g clip-path="url(#clip1_7087_5225)">
<path d="M24.5542 45.1634C24.5542 40.215 28.5657 36.2034 33.5142 36.2034H66.797C71.7455 36.2034 75.757 40.215 75.757 45.1634V66.904C75.757 71.8525 71.7455 75.864 66.797 75.864H33.5142C28.5657 75.864 24.5542 71.8525 24.5542 66.904V45.1634Z" fill="white"/>
<path d="M60.6094 75.8125C60.6094 77.0207 59.63 78 58.4219 78H35.125C27.8879 78 22 72.1121 22 64.875V46.9375C22 39.7004 27.8879 33.8125 35.125 33.8125H64.875C72.1121 33.8125 78 39.7004 78 46.9375C78 48.1457 77.0207 49.125 75.8125 49.125C74.6043 49.125 73.625 48.1457 73.625 46.9375C73.625 42.1128 69.6997 38.1875 64.875 38.1875H35.125C30.3003 38.1875 26.375 42.1128 26.375 46.9375V64.875C26.375 69.6997 30.3003 73.625 35.125 73.625H58.4219C59.63 73.625 60.6094 74.6043 60.6094 75.8125ZM33.1562 30.75C34.3644 30.75 35.3438 29.7707 35.3438 28.5625C35.3438 27.3563 36.3251 26.375 37.5312 26.375C38.7374 26.375 39.7188 27.3563 39.7188 28.5625C39.7188 29.7707 40.6981 30.75 41.9062 30.75C43.1144 30.75 44.0938 29.7707 44.0938 28.5625C44.0938 24.9439 41.1498 22 37.5312 22C33.9127 22 30.9688 24.9439 30.9688 28.5625C30.9688 29.7707 31.9481 30.75 33.1562 30.75ZM58.3125 30.75C59.5207 30.75 60.5 29.7707 60.5 28.5625C60.5 27.3563 61.4813 26.375 62.6875 26.375C63.8937 26.375 64.875 27.3563 64.875 28.5625C64.875 29.7707 65.8543 30.75 67.0625 30.75C68.2707 30.75 69.25 29.7707 69.25 28.5625C69.25 24.9439 66.3061 22 62.6875 22C59.0689 22 56.125 24.9439 56.125 28.5625C56.125 29.7707 57.1043 30.75 58.3125 30.75ZM36.3281 44.0938C34.818 44.0938 33.5938 45.318 33.5938 46.8281C33.5938 48.3383 34.818 49.5625 36.3281 49.5625C37.8383 49.5625 39.0625 48.3383 39.0625 46.8281C39.0625 45.318 37.8383 44.0938 36.3281 44.0938ZM45.7344 44.0938C44.2242 44.0938 43 45.318 43 46.8281C43 48.3383 44.2242 49.5625 45.7344 49.5625C47.2445 49.5625 48.4688 48.3383 48.4688 46.8281C48.4688 45.318 47.2445 44.0938 45.7344 44.0938ZM55.1406 44.0938C53.6305 44.0938 52.4062 45.318 52.4062 46.8281C52.4062 48.3383 53.6305 49.5625 55.1406 49.5625C56.6508 49.5625 57.875 48.3383 57.875 46.8281C57.875 45.318 56.6508 44.0938 55.1406 44.0938ZM67.0625 46.8281C67.0625 45.318 65.8383 44.0938 64.3281 44.0938C62.818 44.0938 61.5938 45.318 61.5938 46.8281C61.5938 48.3383 62.818 49.5625 64.3281 49.5625C65.8383 49.5625 67.0625 48.3383 67.0625 46.8281ZM36.3281 53.5C34.818 53.5 33.5938 54.7242 33.5938 56.2344C33.5938 57.7445 34.818 58.9688 36.3281 58.9688C37.8383 58.9688 39.0625 57.7445 39.0625 56.2344C39.0625 54.7242 37.8383 53.5 36.3281 53.5ZM36.3281 62.9062C34.818 62.9062 33.5938 64.1305 33.5938 65.6406C33.5938 67.1508 34.818 68.375 36.3281 68.375C37.8383 68.375 39.0625 67.1508 39.0625 65.6406C39.0625 64.1305 37.8383 62.9062 36.3281 62.9062ZM45.7344 53.5C44.2242 53.5 43 54.7242 43 56.2344C43 57.7445 44.2242 58.9688 45.7344 58.9688C47.2445 58.9688 48.4688 57.7445 48.4688 56.2344C48.4688 54.7242 47.2445 53.5 45.7344 53.5ZM45.7344 62.9062C44.2242 62.9062 43 64.1305 43 65.6406C43 67.1508 44.2242 68.375 45.7344 68.375C47.2445 68.375 48.4688 67.1508 48.4688 65.6406C48.4688 64.1305 47.2445 62.9062 45.7344 62.9062ZM55.1406 53.5C53.6305 53.5 52.4062 54.7242 52.4062 56.2344C52.4062 57.7445 53.6305 58.9688 55.1406 58.9688C56.6508 58.9688 57.875 57.7445 57.875 56.2344C57.875 54.7242 56.6508 53.5 55.1406 53.5ZM55.1406 62.9062C53.6305 62.9062 52.4062 64.1305 52.4062 65.6406C52.4062 67.1508 53.6305 68.375 55.1406 68.375C56.6508 68.375 57.875 67.1508 57.875 65.6406C57.875 64.1305 56.6508 62.9062 55.1406 62.9062ZM71.2249 62.4323C69.6369 62.4323 68.4844 61.6656 68.4844 60.6094C68.4844 59.6042 69.294 58.7864 70.2891 58.7864C71.2924 58.7864 72.5992 58.8958 74.6854 59.7071C75.8112 60.1449 77.0791 59.5873 77.517 58.4612C77.9549 57.3353 77.3971 56.0675 76.2711 55.6296C75.1851 55.2073 74.2383 54.9304 73.4062 54.7481V53.0625C73.4062 51.8543 72.4269 50.875 71.2188 50.875C70.0106 50.875 69.0312 51.8543 69.0312 53.0625V54.5408C66.2249 55.1252 64.1094 57.624 64.1094 60.6094C64.1094 64.1427 67.1684 66.8073 71.2249 66.8073C72.526 66.8073 73.625 67.6421 73.625 68.6303C73.625 69.6013 72.722 70.4532 71.6927 70.4532C70.8895 70.4532 68.8744 70.1587 66.8862 69.3683C65.7639 68.9223 64.4916 69.4704 64.0454 70.593C63.599 71.7157 64.1474 72.9877 65.2701 73.4339C66.5368 73.9375 67.8584 74.2968 69.0312 74.5244V75.8125C69.0312 77.0207 70.0106 78 71.2188 78C72.4269 78 73.4062 77.0207 73.4062 75.8125V74.5909C74.4065 74.3095 75.3308 73.7835 76.1011 73.041C77.3256 71.8611 78 70.2945 78 68.6302C78 65.2126 74.9607 62.4323 71.2249 62.4323V62.4323Z" fill="#0F2B4D"/>
</g>
<defs>
<clipPath id="clip0_7087_5225">
<rect width="100" height="100" fill="white"/>
</clipPath>
<clipPath id="clip1_7087_5225">
<rect width="56" height="56" fill="white" transform="translate(22 22)"/>
</clipPath>
</defs>
</svg>
