<svg width="100" height="100" viewBox="0 0 100 100" fill="none" xmlns="http://www.w3.org/2000/svg">
<g clip-path="url(#clip0_7087_5252)">
<circle cx="50" cy="50" r="50" fill="#CBE4E7"/>
</g>
<g clip-path="url(#clip1_7087_5252)">
<path d="M67.9193 42.82C67.9193 53.3757 59.3623 61.9327 48.8066 61.9327C38.2509 61.9327 29.6938 53.3757 29.6938 42.82C29.6938 32.2643 38.2509 23.7073 48.8066 23.7073C59.3623 23.7073 67.9193 32.2643 67.9193 42.82Z" fill="white"/>
<path d="M33.0188 53.7554L31.2171 48.7793C44.2866 45.2045 70.2421 40.5247 66.8881 49.0293C62.9057 59.1271 56.9977 62.7233 54.7709 64.9084L53.4828 65.4826H44.3885L41.6842 64.0509L39.0245 60.7048L33.0188 53.7554Z" fill="white"/>
<path d="M48.8024 22.0002C48.8181 21.9999 48.7867 21.9999 48.8024 22.0002V22.0002Z" fill="#0F2B4D"/>
<path d="M54.1514 43.8325C55.3572 43.8325 56.3346 42.8551 56.3346 41.6493C56.3346 40.851 55.9047 40.1548 55.2652 39.7741C54.5393 39.2723 51.9146 37.6306 48.6208 37.6105C48.6112 37.6104 48.6017 37.6103 48.5921 37.6103H48.5601C48.5505 37.6103 48.541 37.6104 48.5314 37.6105C44.8658 37.6328 42.0274 39.6644 41.7143 39.8971C40.7467 40.6166 40.5454 41.9842 41.2648 42.9518C41.6933 43.5282 42.3517 43.8326 43.0185 43.8325C43.4712 43.8325 43.9282 43.6921 44.3194 43.4013C44.332 43.3919 45.1762 42.7847 46.4008 42.366V53.9844C46.4008 55.1902 47.3782 56.1676 48.584 56.1676C49.7898 56.1676 50.7672 55.1902 50.7672 53.9844V42.374C51.9854 42.7945 52.8294 43.3989 52.8422 43.4083L52.8327 43.4014L52.8398 43.3918C53.2054 43.6673 53.6586 43.8325 54.1514 43.8325V43.8325Z" fill="#0F2B4D"/>
<path d="M63.6927 27.5803C59.8037 24.0147 54.4558 22.0358 48.8023 22.0002C43.1489 22.0358 37.801 24.0147 33.912 27.5803C29.8579 31.2976 27.625 36.4491 27.625 42.0859C27.625 47.935 30.1203 54.0344 34.8414 59.7245C38.3364 63.9369 41.8136 66.4584 41.96 66.5636C42.3313 66.8308 42.7774 66.9747 43.2351 66.9747H54.2604C55.4662 66.9747 56.4436 65.9973 56.4436 64.7915C56.4436 63.5857 55.4662 62.6082 54.2604 62.6082H43.9775C41.5842 60.7031 31.9915 52.4191 31.9915 42.0859C31.9915 33.1495 39.2275 26.4043 48.8023 26.3667C58.3768 26.4044 65.6132 33.1496 65.6132 42.0859C65.6132 43.8425 65.3306 45.6451 64.7736 47.4438C64.4168 48.5956 65.0613 49.8185 66.2131 50.1752C67.3642 50.5318 68.5879 49.8876 68.9445 48.7357C69.6314 46.5182 69.9796 44.2808 69.9796 42.0858C69.9796 36.4491 67.7468 31.2976 63.6927 27.5803V27.5803Z" fill="#0F2B4D"/>
<path d="M54.9306 70.2458C53.7826 69.8757 52.5527 70.506 52.1825 71.6535L51.579 73.5245H45.9165L45.3129 71.6535C44.9427 70.5057 43.7122 69.8754 42.5649 70.2458C41.4173 70.616 40.7872 71.8464 41.1572 72.9939L42.2489 76.3779C42.5398 77.2798 43.3791 77.8908 44.3266 77.8908H53.1687C54.1162 77.8908 54.9556 77.2796 55.2465 76.3779L56.3381 72.9939C56.7083 71.8464 56.0782 70.616 54.9306 70.2458V70.2458Z" fill="#0F2B4D"/>
<path d="M68.7723 73.5014C70.8736 72.7302 72.3752 70.726 72.3752 68.3807C72.3752 66.8917 71.7143 65.452 70.5619 64.4306C69.4641 63.4575 68.0144 62.9217 66.4795 62.9217C65.4214 62.9217 64.6234 62.4523 64.6234 61.8299C64.6234 61.2279 65.1132 60.7381 65.7153 60.7381C66.4909 60.7381 67.4343 60.826 69.0727 61.463C70.1967 61.9002 71.4622 61.3433 71.8992 60.2194C72.3364 59.0953 71.7795 57.8298 70.6556 57.3928C69.9558 57.1207 69.3334 56.9206 68.7723 56.7726V56.3709C68.7723 55.1649 67.7947 54.1873 66.5887 54.1873C65.3827 54.1873 64.4051 55.1649 64.4051 56.3709V56.5309C62.0258 57.1193 60.2562 59.2713 60.2562 61.8299C60.2562 64.9421 62.9317 67.2889 66.4795 67.2889C67.3081 67.2889 68.008 67.7888 68.008 68.3807C68.008 68.9726 67.483 69.4725 66.8616 69.4725C66.4053 69.4725 64.8466 69.3237 63.1372 68.6443C62.0164 68.199 60.7469 68.7462 60.3014 69.867C59.8561 70.9877 60.4034 72.2572 61.5241 72.7027C62.5235 73.0999 63.5152 73.3746 64.4051 73.5551V73.8397C64.4051 75.0457 65.3827 76.0233 66.5887 76.0233C67.7947 76.0233 68.7723 75.0457 68.7723 73.8397V73.5014Z" fill="#0F2B4D"/>
</g>
<defs>
<clipPath id="clip0_7087_5252">
<rect width="100" height="100" fill="white"/>
</clipPath>
<clipPath id="clip1_7087_5252">
<rect width="56" height="56" fill="white" transform="translate(22 22)"/>
</clipPath>
</defs>
</svg>
