<svg width="100" height="100" viewBox="0 0 100 100" fill="none" xmlns="http://www.w3.org/2000/svg">
<g clip-path="url(#clip0_7087_5249)">
<circle cx="50" cy="50" r="50" fill="#FFF4E5"/>
</g>
<g clip-path="url(#clip1_7087_5249)">
<path d="M60.1777 37.2303H31.8589L28.6631 37.7629L25.9997 39.5384L23.958 43.4444V47.4393L25.9997 63.1522L27.6865 70.7867L32.3915 74.604L36.475 75.9356H62.5745L67.102 75.3142L72.0733 70.7867L75.8906 44.0659L74.7365 41.0476L72.0733 38.3843L68.6999 37.2303H60.1777Z" fill="white"/>
<path d="M66.4156 37.4236C66.4156 36.2156 67.3948 35.2363 68.6028 35.2363C70.9798 35.2363 73.248 36.1243 74.989 37.7367C76.7045 39.3251 77.7635 41.4749 77.971 43.7899C78.0788 44.993 77.1909 46.0558 75.9879 46.1636C75.9215 46.1697 75.8554 46.1725 75.7899 46.1725C74.6702 46.1725 73.7159 45.3173 73.6141 44.1805C73.3843 41.618 71.1831 39.6108 68.6028 39.6108C67.3948 39.6108 66.4156 38.6315 66.4156 37.4236ZM73.238 68.0827C72.1717 67.5148 70.8473 67.9184 70.2792 68.9845C68.7552 71.845 65.7954 73.6219 62.5546 73.6219H37.4528C33.0013 73.6219 29.2643 70.2865 28.7602 65.8636L26.4066 45.2108C26.2421 43.7673 26.6842 42.3754 27.6517 41.2915C28.6191 40.2076 29.9519 39.6108 31.4048 39.6108C32.6128 39.6108 33.592 38.6315 33.592 37.4236C33.592 36.2156 32.6128 35.2363 31.4048 35.2363C28.728 35.2363 26.1705 36.3818 24.3881 38.3787C22.6056 40.3757 21.7572 43.0464 22.0604 45.7062L24.4139 66.359C25.17 72.9934 30.7755 77.9964 37.4528 77.9964H62.5547C67.4151 77.9964 71.8544 75.3315 74.14 71.0415C74.7079 69.9752 74.3041 68.6507 73.238 68.0827ZM39.8417 46.1174C41.0497 46.1174 42.0289 45.1382 42.0289 43.9302V34.3615C42.0289 29.9595 45.6103 26.3781 50.0122 26.3781C54.4142 26.3781 57.9956 29.9595 57.9956 34.3615V35.2363H48.5906C47.3826 35.2363 46.4033 36.2156 46.4033 37.4236C46.4033 38.6315 47.3826 39.6108 48.5906 39.6108H60.1828C61.3908 39.6108 62.37 38.6315 62.37 37.4236V34.3615C62.37 27.5473 56.8264 22.0037 50.0122 22.0037C43.1981 22.0037 37.6545 27.5473 37.6545 34.3615V43.9302C37.6545 45.1382 38.6338 46.1174 39.8417 46.1174Z" fill="#0F2B4D"/>
<path fill-rule="evenodd" clip-rule="evenodd" d="M57.6285 49.1248C58.6071 49.1248 59.5281 49.2757 60.3848 49.5847L60.3853 49.5837C61.2332 49.8713 61.9643 50.2563 62.5487 50.7572C63.0849 51.1913 63.4429 51.7741 63.4429 52.4936C63.4429 53.0395 63.2237 53.5161 62.8616 53.8996C62.4815 54.302 61.9895 54.5356 61.4216 54.5356C61.0326 54.5356 60.6692 54.4146 60.358 54.1812L60.3328 54.1621L60.3087 54.1413C60.1704 54.0203 59.9532 53.8816 59.6295 53.7377L59.6175 53.7328L59.606 53.7273C59.2821 53.5714 58.9378 53.4441 58.5724 53.3467L58.5604 53.3434L58.5478 53.3396C58.1962 53.2341 57.8913 53.1887 57.6285 53.1887C57.1034 53.1887 56.7041 53.256 56.4084 53.3637C56.1138 53.4761 55.9522 53.6053 55.8626 53.7186C55.7765 53.8277 55.7325 53.947 55.7325 54.1101C55.7325 54.3415 55.7904 54.4826 55.8703 54.5843C56.0042 54.7194 56.224 54.8649 56.5758 54.9944C56.9868 55.1309 57.4929 55.2606 58.1005 55.3794C58.9542 55.5363 59.7159 55.7242 60.3815 55.946C61.0807 56.1745 61.6945 56.4822 62.2015 56.8844C62.2046 56.8869 62.2082 56.8897 62.2113 56.8921C62.2127 56.8932 62.2143 56.8943 62.2157 56.8954C62.7439 57.304 63.1394 57.8274 63.3991 58.4507C63.6614 59.0662 63.7748 59.7778 63.7748 60.5567C63.7748 61.6203 63.4763 62.5784 62.8555 63.389C62.2625 64.1632 61.4849 64.7465 60.5472 65.1439L60.5466 65.1433C59.6337 65.536 58.6509 65.7285 57.6077 65.7285C56.5735 65.7285 55.6186 65.6033 54.7519 65.3402L54.7388 65.3358C53.8434 65.048 53.0069 64.5581 52.2292 63.8872C51.9734 63.6694 51.763 63.4097 51.6123 63.1084C51.4643 62.8123 51.3783 62.491 51.3783 62.1525C51.3783 61.6172 51.573 61.1357 51.9383 60.7476L51.9394 60.747C52.3347 60.3284 52.8468 60.1105 53.4208 60.1105C53.8193 60.1105 54.1902 60.2246 54.514 60.443L54.6502 60.543L54.6535 60.5458L54.6562 60.5485C55.1338 60.9381 55.5868 61.2176 56.0136 61.4022C56.4065 61.5661 56.9284 61.6652 57.6077 61.6652C58.0308 61.6652 58.4008 61.6021 58.7261 61.488C59.0588 61.3577 59.2913 61.2054 59.4518 61.0472C59.5763 60.9133 59.6071 60.8065 59.6071 60.7016C59.6071 60.4694 59.5432 60.316 59.4365 60.1914C59.3104 60.0443 59.0697 59.8684 58.6369 59.7047L58.6276 59.7014L58.6183 59.6976C58.1922 59.5248 57.6154 59.3791 56.8689 59.2743L56.8629 59.2732C56.0686 59.1555 55.3488 58.9761 54.7115 58.7274L54.6951 58.7208C54.0569 58.4563 53.4958 58.1194 53.0271 57.7009L53.0151 57.6905L53.0036 57.6796C52.5485 57.2413 52.1987 56.7299 51.9601 56.1505L51.9569 56.1429C51.7185 55.5471 51.6063 54.9002 51.6063 54.214C51.6063 53.1672 51.8749 52.2222 52.448 51.4233L52.4512 51.419L52.4551 51.414C53.0218 50.6472 53.7756 50.0734 54.6907 49.6881C55.5928 49.3083 56.576 49.1248 57.6285 49.1248Z" fill="#0F2B4D"/>
<path fill-rule="evenodd" clip-rule="evenodd" d="M70.6533 49.2858C71.0762 49.2915 71.4673 49.4268 71.8061 49.6752L71.8055 49.6757C72.1581 49.9114 72.4095 50.2391 72.5602 50.6284L77.6598 62.7745L77.6648 62.7865L77.6691 62.7985C77.7657 63.0498 77.8288 63.3191 77.8288 63.5975C77.8288 64.1705 77.6292 64.7008 77.1906 65.0998L77.1912 65.1003C77.1884 65.1029 77.1852 65.1049 77.1824 65.1074C77.1794 65.1102 77.1767 65.1134 77.1737 65.1162L77.1731 65.1156C76.8043 65.4559 76.3483 65.6603 75.8278 65.6603C75.3942 65.6603 74.9932 65.5237 74.6471 65.2699L74.6362 65.2611L74.6252 65.2529C74.3046 65.0009 74.0729 64.6723 73.9159 64.3013L73.0579 62.3025H67.9862L67.1287 64.3199L67.1276 64.3194C66.9778 64.706 66.7371 65.0401 66.3964 65.2901L66.3876 65.2967C66.0536 65.5352 65.6689 65.6603 65.2567 65.6603C64.7322 65.6603 64.1842 65.5103 63.7933 65.0593C63.4667 64.6825 63.3186 64.225 63.3186 63.7424C63.3186 63.5245 63.3546 63.3112 63.4159 63.107L63.4285 63.0654L63.4449 63.0255L68.6063 50.6306C68.7717 50.2225 69.034 49.8726 69.4031 49.6188L69.4228 49.6057C69.792 49.3668 70.21 49.2524 70.6533 49.2858ZM69.7143 58.2387H71.3139L70.51 56.3656L69.7143 58.2387Z" fill="#0F2B4D"/>
<path fill-rule="evenodd" clip-rule="evenodd" d="M49.0728 49.3672C49.6498 49.3672 50.1862 49.5595 50.5991 49.9868C51.0052 50.3929 51.1979 50.9096 51.1979 51.4716V63.452C51.1979 64.0287 50.9888 64.5481 50.5789 64.9581C50.1548 65.3821 49.6056 65.5564 49.0312 65.5564C48.4794 65.5563 47.9858 65.3537 47.5798 64.9903L47.5628 64.9745L47.5464 64.9581C47.1364 64.5481 46.9268 64.0287 46.9268 63.452V59.4625H41.9951V63.452C41.9951 64.0437 41.7676 64.5678 41.3389 64.9739L41.3214 64.9903C40.9082 65.36 40.4057 65.5564 39.8492 65.5564C39.2791 65.5564 38.7407 65.3765 38.3223 64.9581L38.3141 64.9499L38.3059 64.9411C37.9402 64.5539 37.7487 64.0779 37.7262 63.557L37.724 63.452V51.4716C37.724 50.9021 37.9293 50.3869 38.3436 49.9868C38.7664 49.5641 39.3055 49.3672 39.8907 49.3672C40.4589 49.3673 40.9583 49.59 41.3536 49.9846C41.7767 50.3788 41.9951 50.8935 41.9951 51.4716V55.3987H46.9268V51.4716C46.9268 50.8868 47.1503 50.3668 47.5831 49.971C47.9935 49.5821 48.5015 49.3673 49.0728 49.3672Z" fill="#0F2B4D"/>
</g>
<defs>
<clipPath id="clip0_7087_5249">
<rect width="100" height="100" fill="white"/>
</clipPath>
<clipPath id="clip1_7087_5249">
<rect width="56" height="56" fill="white" transform="translate(22 22)"/>
</clipPath>
</defs>
</svg>
