<svg width="2112" height="488" viewBox="0 0 2112 488" fill="none" xmlns="http://www.w3.org/2000/svg">
<g clip-path="url(#clip0_429_3987)">
<g clip-path="url(#clip1_429_3987)">
<path opacity="0.6" d="M135.875 260.153L238.046 362.324L300.462 299.909L353.231 352.678L266.513 439.395C253.093 452.701 231.41 452.669 218.022 439.281L10.0528 231.312C-3.36721 217.892 -3.36721 196.127 10.0528 182.707L144.041 48.7187C157.461 35.2987 179.226 35.2987 192.646 48.7187L245.675 101.748L135.875 211.548C122.455 224.968 122.455 246.717 135.875 260.153Z" fill="#B5C428"/>
<path opacity="0.6" d="M347.293 48.735L477.931 179.373C491.351 192.793 491.351 214.541 477.931 227.977L400.615 305.293C414.035 291.873 414.035 270.124 400.615 256.688L245.675 101.748L298.705 48.7187C312.125 35.2987 333.873 35.2987 347.31 48.7187L347.293 48.735Z" fill="#1D7883"/>
<path d="M122.83 69.9303C136.233 83.3503 136.217 105.099 122.813 118.503L80.4061 160.91C66.9861 174.33 45.2539 174.33 31.8339 160.926L122.846 69.9141L122.83 69.9303Z" fill="#1D7883"/>
<path d="M245.675 101.748L400.615 256.688C414.035 270.108 414.035 291.873 400.615 305.293L290.815 415.093L135.875 260.153C122.455 246.733 122.455 224.984 135.875 211.548L245.675 101.748Z" fill="#1D7883"/>
</g>
<path d="M703.12 142H736V310H703.12V240.4H640.72V310H607.6V142H640.72V208.72H703.12V142ZM791.929 262.72C796.089 277.76 807.369 285.28 825.769 285.28C837.609 285.28 846.569 281.28 852.649 273.28L877.609 287.68C865.769 304.8 848.329 313.36 825.289 313.36C805.449 313.36 789.529 307.36 777.529 295.36C765.529 283.36 759.529 268.24 759.529 250C759.529 231.92 765.449 216.88 777.289 204.88C789.129 192.72 804.329 186.64 822.889 186.64C840.489 186.64 854.969 192.72 866.329 204.88C877.849 217.04 883.609 232.08 883.609 250C883.609 254 883.209 258.24 882.409 262.72H791.929ZM791.449 238.72H852.649C850.889 230.56 847.209 224.48 841.609 220.48C836.169 216.48 829.929 214.48 822.889 214.48C814.569 214.48 807.689 216.64 802.249 220.96C796.809 225.12 793.209 231.04 791.449 238.72ZM995.485 190H1026.45V310H995.485V295.84C986.205 307.52 973.165 313.36 956.365 313.36C940.365 313.36 926.605 307.28 915.085 295.12C903.725 282.8 898.045 267.76 898.045 250C898.045 232.24 903.725 217.28 915.085 205.12C926.605 192.8 940.365 186.64 956.365 186.64C973.165 186.64 986.205 192.48 995.485 204.16V190ZM938.365 274.48C944.605 280.72 952.525 283.84 962.125 283.84C971.725 283.84 979.645 280.72 985.885 274.48C992.285 268.08 995.485 259.92 995.485 250C995.485 240.08 992.285 232 985.885 225.76C979.645 219.36 971.725 216.16 962.125 216.16C952.525 216.16 944.605 219.36 938.365 225.76C932.125 232 929.005 240.08 929.005 250C929.005 259.92 932.125 268.08 938.365 274.48ZM1054.52 310V134.8H1085.48V310H1054.52ZM1182.46 219.76H1155.34V269.68C1155.34 273.84 1156.38 276.88 1158.46 278.8C1160.54 280.72 1163.58 281.84 1167.58 282.16C1171.58 282.32 1176.54 282.24 1182.46 281.92V310C1161.18 312.4 1146.14 310.4 1137.34 304C1128.7 297.6 1124.38 286.16 1124.38 269.68V219.76H1103.5V190H1124.38V165.76L1155.34 156.4V190H1182.46V219.76ZM1271.01 186.64C1284.13 186.64 1294.93 191.04 1303.41 199.84C1312.05 208.64 1316.37 220.8 1316.37 236.32V310H1285.41V240.16C1285.41 232.16 1283.25 226.08 1278.93 221.92C1274.61 217.6 1268.85 215.44 1261.65 215.44C1253.65 215.44 1247.25 217.92 1242.45 222.88C1237.65 227.84 1235.25 235.28 1235.25 245.2V310H1204.29V142H1235.25V203.44C1242.77 192.24 1254.69 186.64 1271.01 186.64ZM1439.28 310L1392.24 142H1427.04L1459.2 266.56L1494.24 142H1522.56L1557.84 266.56L1590 142H1624.8L1577.76 310H1540.08L1508.4 199.12L1476.96 310H1439.28ZM1719.47 190H1750.43V310H1719.47V295.84C1710.19 307.52 1697.15 313.36 1680.35 313.36C1664.35 313.36 1650.59 307.28 1639.07 295.12C1627.71 282.8 1622.03 267.76 1622.03 250C1622.03 232.24 1627.71 217.28 1639.07 205.12C1650.59 192.8 1664.35 186.64 1680.35 186.64C1697.15 186.64 1710.19 192.48 1719.47 204.16V190ZM1662.35 274.48C1668.59 280.72 1676.51 283.84 1686.11 283.84C1695.71 283.84 1703.63 280.72 1709.87 274.48C1716.27 268.08 1719.47 259.92 1719.47 250C1719.47 240.08 1716.27 232 1709.87 225.76C1703.63 219.36 1695.71 216.16 1686.11 216.16C1676.51 216.16 1668.59 219.36 1662.35 225.76C1656.11 232 1652.99 240.08 1652.99 250C1652.99 259.92 1656.11 268.08 1662.35 274.48ZM1778.5 310V134.8H1809.46V310H1778.5ZM1837.8 310V134.8H1868.76V310H1837.8ZM1923.26 262.72C1927.42 277.76 1938.7 285.28 1957.1 285.28C1968.94 285.28 1977.9 281.28 1983.98 273.28L2008.94 287.68C1997.1 304.8 1979.66 313.36 1956.62 313.36C1936.78 313.36 1920.86 307.36 1908.86 295.36C1896.86 283.36 1890.86 268.24 1890.86 250C1890.86 231.92 1896.78 216.88 1908.62 204.88C1920.46 192.72 1935.66 186.64 1954.22 186.64C1971.82 186.64 1986.3 192.72 1997.66 204.88C2009.18 217.04 2014.94 232.08 2014.94 250C2014.94 254 2014.54 258.24 2013.74 262.72H1923.26ZM1922.78 238.72H1983.98C1982.22 230.56 1978.54 224.48 1972.94 220.48C1967.5 216.48 1961.26 214.48 1954.22 214.48C1945.9 214.48 1939.02 216.64 1933.58 220.96C1928.14 225.12 1924.54 231.04 1922.78 238.72ZM2101.68 219.76H2074.56V269.68C2074.56 273.84 2075.6 276.88 2077.68 278.8C2079.76 280.72 2082.8 281.84 2086.8 282.16C2090.8 282.32 2095.76 282.24 2101.68 281.92V310C2080.4 312.4 2065.36 310.4 2056.56 304C2047.92 297.6 2043.6 286.16 2043.6 269.68V219.76H2022.72V190H2043.6V165.76L2074.56 156.4V190H2101.68V219.76Z" fill="#0F2B4D"/>
</g>
<defs>
<clipPath id="clip0_429_3987">
<rect width="2112" height="488" fill="white"/>
</clipPath>
<clipPath id="clip1_429_3987">
<rect width="488" height="488" fill="white"/>
</clipPath>
</defs>
</svg>
