<svg width="16" height="16" viewBox="0 0 16 16" fill="none" xmlns="http://www.w3.org/2000/svg">
<mask id="path-1-inside-1_2490_5068" fill="white">
<path d="M1.71429 1.12C0.772321 1.12 0 1.89232 0 2.83428V9.69143C0 10.6334 0.772321 11.4057 1.71429 11.4057H2.28571V13.12C2.28571 14.062 3.05804 14.8343 4 14.8343H14.2857C15.2277 14.8343 16 14.062 16 13.12V6.26286C16 5.32089 15.2277 4.54857 14.2857 4.54857H13.7143V2.83428C13.7143 1.89232 12.942 1.12 12 1.12H1.71429ZM1.71429 2.26286H12C12.3214 2.26286 12.5714 2.51286 12.5714 2.83428V3.40571H1.14286V2.83428C1.14286 2.51286 1.39286 2.26286 1.71429 2.26286ZM1.14286 4.54857H12.5714V9.69143C12.5714 10.0129 12.3214 10.2629 12 10.2629H1.71429C1.39286 10.2629 1.14286 10.0129 1.14286 9.69143V4.54857ZM13.7143 5.69143H14.2857C14.6071 5.69143 14.8571 5.94143 14.8571 6.26286V6.83428H13.7143V5.69143ZM13.7143 7.97714H14.8571V13.12C14.8571 13.4414 14.6071 13.6914 14.2857 13.6914H4C3.67857 13.6914 3.42857 13.4414 3.42857 13.12V11.4057H12C12.942 11.4057 13.7143 10.6334 13.7143 9.69143V7.97714Z"/>
</mask>
<path d="M1.71429 1.12C0.772321 1.12 0 1.89232 0 2.83428V9.69143C0 10.6334 0.772321 11.4057 1.71429 11.4057H2.28571V13.12C2.28571 14.062 3.05804 14.8343 4 14.8343H14.2857C15.2277 14.8343 16 14.062 16 13.12V6.26286C16 5.32089 15.2277 4.54857 14.2857 4.54857H13.7143V2.83428C13.7143 1.89232 12.942 1.12 12 1.12H1.71429ZM1.71429 2.26286H12C12.3214 2.26286 12.5714 2.51286 12.5714 2.83428V3.40571H1.14286V2.83428C1.14286 2.51286 1.39286 2.26286 1.71429 2.26286ZM1.14286 4.54857H12.5714V9.69143C12.5714 10.0129 12.3214 10.2629 12 10.2629H1.71429C1.39286 10.2629 1.14286 10.0129 1.14286 9.69143V4.54857ZM13.7143 5.69143H14.2857C14.6071 5.69143 14.8571 5.94143 14.8571 6.26286V6.83428H13.7143V5.69143ZM13.7143 7.97714H14.8571V13.12C14.8571 13.4414 14.6071 13.6914 14.2857 13.6914H4C3.67857 13.6914 3.42857 13.4414 3.42857 13.12V11.4057H12C12.942 11.4057 13.7143 10.6334 13.7143 9.69143V7.97714Z" fill="#0F2B4D"/>
<path d="M2.28571 11.4057H8.53571V5.15571H2.28571V11.4057ZM13.7143 4.54857H7.46429V10.7986H13.7143V4.54857ZM12.5714 3.40571V9.65571H18.8214V3.40571H12.5714ZM1.14286 3.40571H-5.10714V9.65571H1.14286V3.40571ZM1.14286 4.54857V-1.70143H-5.10714V4.54857H1.14286ZM12.5714 4.54857H18.8214V-1.70143H12.5714V4.54857ZM13.7143 5.69143V-0.558572H7.46429V5.69143H13.7143ZM14.8571 6.83428V13.0843H21.1071V6.83428H14.8571ZM13.7143 6.83428H7.46429V13.0843H13.7143V6.83428ZM13.7143 7.97714V1.72714H7.46429V7.97714H13.7143ZM14.8571 7.97714H21.1071V1.72714H14.8571V7.97714ZM3.42857 11.4057V5.15571H-2.82143V11.4057H3.42857ZM1.71429 1.12V-5.13C-2.67946 -5.13 -6.25 -1.55946 -6.25 2.83428H0H6.25C6.25 5.3441 4.2241 7.37 1.71429 7.37V1.12ZM0 2.83428H-6.25V9.69143H0H6.25V2.83428H0ZM0 9.69143H-6.25C-6.25 14.0852 -2.67946 17.6557 1.71429 17.6557V11.4057V5.15571C4.2241 5.15571 6.25 7.18161 6.25 9.69143H0ZM1.71429 11.4057V17.6557H2.28571V11.4057V5.15571H1.71429V11.4057ZM2.28571 11.4057H-3.96429V13.12H2.28571H8.53571V11.4057H2.28571ZM2.28571 13.12H-3.96429C-3.96429 17.5137 -0.393744 21.0843 4 21.0843V14.8343V8.58429C6.50982 8.58429 8.53571 10.6102 8.53571 13.12H2.28571ZM4 14.8343V21.0843H14.2857V14.8343V8.58429H4V14.8343ZM14.2857 14.8343V21.0843C18.6795 21.0843 22.25 17.5137 22.25 13.12H16H9.75C9.75 10.6102 11.7759 8.58429 14.2857 8.58429V14.8343ZM16 13.12H22.25V6.26286H16H9.75V13.12H16ZM16 6.26286H22.25C22.25 1.86911 18.6795 -1.70143 14.2857 -1.70143V4.54857V10.7986C11.7759 10.7986 9.75 8.77267 9.75 6.26286H16ZM14.2857 4.54857V-1.70143H13.7143V4.54857V10.7986H14.2857V4.54857ZM13.7143 4.54857H19.9643V2.83428H13.7143H7.46429V4.54857H13.7143ZM13.7143 2.83428H19.9643C19.9643 -1.55946 16.3937 -5.13 12 -5.13V1.12V7.37C9.49019 7.37 7.46429 5.3441 7.46429 2.83428H13.7143ZM12 1.12V-5.13H1.71429V1.12V7.37H12V1.12ZM1.71429 2.26286V8.51286H12V2.26286V-3.98714H1.71429V2.26286ZM12 2.26286V8.51286C8.86965 8.51286 6.32143 5.96464 6.32143 2.83428H12.5714H18.8214C18.8214 -0.938924 15.7732 -3.98714 12 -3.98714V2.26286ZM12.5714 2.83428H6.32143V3.40571H12.5714H18.8214V2.83428H12.5714ZM12.5714 3.40571V-2.84429H1.14286V3.40571V9.65571H12.5714V3.40571ZM1.14286 3.40571H7.39286V2.83428H1.14286H-5.10714V3.40571H1.14286ZM1.14286 2.83428H7.39286C7.39286 5.96464 4.84464 8.51286 1.71429 8.51286V2.26286V-3.98714C-2.05892 -3.98714 -5.10714 -0.938924 -5.10714 2.83428H1.14286ZM1.14286 4.54857V10.7986H12.5714V4.54857V-1.70143H1.14286V4.54857ZM12.5714 4.54857H6.32143V9.69143H12.5714H18.8214V4.54857H12.5714ZM12.5714 9.69143H6.32143C6.32143 6.56108 8.86965 4.01286 12 4.01286V10.2629V16.5129C15.7732 16.5129 18.8214 13.4646 18.8214 9.69143H12.5714ZM12 10.2629V4.01286H1.71429V10.2629V16.5129H12V10.2629ZM1.71429 10.2629V4.01286C4.84464 4.01286 7.39286 6.56108 7.39286 9.69143H1.14286H-5.10714C-5.10714 13.4646 -2.05892 16.5129 1.71429 16.5129V10.2629ZM1.14286 9.69143H7.39286V4.54857H1.14286H-5.10714V9.69143H1.14286ZM13.7143 5.69143V11.9414H14.2857V5.69143V-0.558572H13.7143V5.69143ZM14.2857 5.69143V11.9414C11.1554 11.9414 8.60714 9.39321 8.60714 6.26286H14.8571H21.1071C21.1071 2.48965 18.0589 -0.558572 14.2857 -0.558572V5.69143ZM14.8571 6.26286H8.60714V6.83428H14.8571H21.1071V6.26286H14.8571ZM14.8571 6.83428V0.584285H13.7143V6.83428V13.0843H14.8571V6.83428ZM13.7143 6.83428H19.9643V5.69143H13.7143H7.46429V6.83428H13.7143ZM13.7143 7.97714V14.2271H14.8571V7.97714V1.72714H13.7143V7.97714ZM14.8571 7.97714H8.60714V13.12H14.8571H21.1071V7.97714H14.8571ZM14.8571 13.12H8.60714C8.60714 9.98965 11.1554 7.44143 14.2857 7.44143V13.6914V19.9414C18.0589 19.9414 21.1071 16.8932 21.1071 13.12H14.8571ZM14.2857 13.6914V7.44143H4V13.6914V19.9414H14.2857V13.6914ZM4 13.6914V7.44143C7.13035 7.44143 9.67857 9.98965 9.67857 13.12H3.42857H-2.82143C-2.82143 16.8932 0.226792 19.9414 4 19.9414V13.6914ZM3.42857 13.12H9.67857V11.4057H3.42857H-2.82143V13.12H3.42857ZM3.42857 11.4057V17.6557H12V11.4057V5.15571H3.42857V11.4057ZM12 11.4057V17.6557C16.3937 17.6557 19.9643 14.0852 19.9643 9.69143H13.7143H7.46429C7.46429 7.18161 9.49019 5.15571 12 5.15571V11.4057ZM13.7143 9.69143H19.9643V7.97714H13.7143H7.46429V9.69143H13.7143Z" fill="#60758F" mask="url(#path-1-inside-1_2490_5068)"/>
</svg>
