<svg width="16" height="16" viewBox="0 0 16 16" fill="none" xmlns="http://www.w3.org/2000/svg">
<g clip-path="url(#clip0_1169_1868)">
<path d="M9.25005 8C9.25005 7.30964 8.69041 6.75 8.00005 6.75C7.3097 6.75 6.75005 7.30964 6.75005 8C6.75005 8.69036 7.3097 9.25 8.00005 9.25C8.69041 9.25 9.25005 8.69036 9.25005 8ZM10.7501 8C10.7501 9.51878 9.51884 10.75 8.00005 10.75C6.48127 10.75 5.25005 9.51878 5.25005 8C5.25005 6.48122 6.48127 5.25 8.00005 5.25C9.51884 5.25 10.7501 6.48122 10.7501 8Z" fill="#60758F"/>
<path d="M5.97042 13.9997V13.9577L5.96554 13.905C5.95652 13.8537 5.9355 13.8051 5.90499 13.7624C5.86413 13.7053 5.80684 13.6616 5.74093 13.6374C5.72615 13.632 5.71139 13.6262 5.69698 13.6198C5.63314 13.5917 5.56252 13.583 5.49386 13.5954C5.42515 13.6079 5.3612 13.6404 5.31124 13.6891L5.27706 13.7233L4.21651 12.6638L4.26241 12.6169L4.36495 12.5241C4.61113 12.317 4.90816 12.1775 5.22628 12.1198C5.5897 12.054 5.96452 12.0977 6.30245 12.2468C6.63261 12.3776 6.9177 12.6 7.12472 12.8893C7.34067 13.1913 7.46076 13.5514 7.46944 13.9225C7.46958 13.9284 7.47042 13.9343 7.47042 13.9401V13.9997C7.47042 14.1544 7.53192 14.3034 7.64132 14.4128C7.75068 14.522 7.89889 14.5837 8.05343 14.5837C8.20798 14.5837 8.35618 14.522 8.46554 14.4128C8.57493 14.3034 8.63644 14.1544 8.63644 13.9997V13.8835L8.6423 13.7487C8.66646 13.4356 8.76987 13.1329 8.94405 12.8698C9.1426 12.57 9.42441 12.3344 9.7546 12.1921C10.0917 12.0443 10.4656 12.0004 10.8278 12.0661C11.1462 12.1239 11.4429 12.264 11.6892 12.4714L11.7907 12.5641L11.8366 12.61L11.9255 12.6823C11.9573 12.7036 11.9915 12.7223 12.0271 12.737C12.0976 12.7662 12.1733 12.7809 12.2497 12.7809C12.3263 12.7809 12.4026 12.7663 12.4734 12.737C12.5442 12.7076 12.6086 12.6643 12.6628 12.61L12.6638 12.6091C12.7178 12.555 12.7605 12.4903 12.7898 12.4196C12.819 12.349 12.8346 12.2734 12.8347 12.197C12.8347 12.1203 12.8191 12.0441 12.7898 11.9733C12.7604 11.9026 12.7179 11.838 12.6638 11.7839L12.6169 11.738C12.3585 11.4737 12.1858 11.1378 12.1198 10.7741C12.0622 10.456 12.0885 10.1291 12.196 9.82587L12.2468 9.69696C12.3892 9.3687 12.6242 9.089 12.9226 8.8913C13.2234 8.69208 13.5764 8.58512 13.9372 8.58368H13.9997C14.1544 8.58368 14.3034 8.52218 14.4128 8.41278C14.5222 8.30338 14.5837 8.1544 14.5837 7.99969C14.5836 7.84518 14.522 7.69689 14.4128 7.58759C14.3034 7.47819 14.1544 7.41669 13.9997 7.41669H13.8835C13.5228 7.41521 13.1706 7.30819 12.8698 7.10907C12.5691 6.90991 12.3333 6.6271 12.1911 6.29559L12.8816 5.99969H12.8796L12.1911 6.29559C12.1647 6.23405 12.1466 6.16923 12.1374 6.10321C12.035 5.80487 12.0095 5.48463 12.0661 5.17255C12.1321 4.80883 12.3057 4.47293 12.5642 4.20868L12.6101 4.16278L12.6823 4.07391C12.7035 4.04224 12.7224 4.00869 12.737 3.97333C12.7663 3.90257 12.781 3.82628 12.781 3.74969C12.7809 3.67332 12.7662 3.59762 12.737 3.52704C12.7223 3.49151 12.7036 3.45728 12.6823 3.42548L12.6101 3.33759L12.6091 3.33661L12.5212 3.26434C12.4894 3.24306 12.4551 3.22437 12.4196 3.20966C12.3491 3.18048 12.2734 3.16575 12.197 3.16571C12.1204 3.16571 12.0441 3.18035 11.9734 3.20966C11.9025 3.23901 11.8381 3.28238 11.7839 3.33661L11.738 3.38251C11.4738 3.64099 11.1378 3.81461 10.7741 3.88055C10.4104 3.94648 10.0351 3.90186 9.69698 3.75262C9.36882 3.61014 9.08892 3.37523 8.89132 3.07684C8.69214 2.77608 8.58517 2.4239 8.5837 2.06317V1.99969C8.58362 1.84518 8.52202 1.69689 8.4128 1.58759C8.30341 1.47819 8.15443 1.41669 7.99972 1.41669C7.84513 1.41677 7.69693 1.47827 7.58761 1.58759C7.47829 1.69691 7.4168 1.8451 7.41671 1.99969V2.11591C7.41527 2.4767 7.3083 2.82974 7.10909 3.13055C6.90991 3.43127 6.62714 3.66715 6.29562 3.80927L5.99972 3.11786V3.11981L6.29562 3.80927C6.23503 3.83523 6.17111 3.85172 6.10616 3.86102C5.80696 3.96438 5.48573 3.99103 5.17257 3.93427C4.80885 3.86832 4.47295 3.6947 4.2087 3.43622L4.1628 3.39032L4.07394 3.31708C4.04235 3.29599 4.0086 3.27798 3.97335 3.26337C3.90256 3.23404 3.82634 3.21942 3.74972 3.21942C3.6733 3.21946 3.59767 3.23415 3.52706 3.26337C3.45625 3.29272 3.39178 3.33609 3.33761 3.39032L3.26437 3.47919C3.24315 3.5109 3.22436 3.54435 3.20968 3.57977C3.18032 3.65059 3.16573 3.72675 3.16573 3.80341C3.16574 3.88005 3.18033 3.95624 3.20968 4.02704C3.22437 4.06245 3.24315 4.09591 3.26437 4.12762L3.33663 4.21649L3.38253 4.26239L3.4753 4.36493C3.68257 4.61117 3.82287 4.908 3.88058 5.22626C3.94596 5.58731 3.90228 5.95939 3.75558 6.29559C3.62504 6.62833 3.40125 6.91643 3.11007 7.12469C2.80824 7.34053 2.4488 7.46069 2.07784 7.46942C2.07207 7.46956 2.06604 7.4704 2.06026 7.4704H1.99972C1.84513 7.47048 1.69693 7.53198 1.58761 7.6413C1.47833 7.75067 1.41671 7.89879 1.41671 8.05341C1.41672 8.20803 1.47831 8.35614 1.58761 8.46552C1.69693 8.57483 1.84513 8.63633 1.99972 8.63641H2.11593L2.25167 8.64227C2.56477 8.66649 2.86751 8.76982 3.13058 8.94403C3.42921 9.1418 3.66391 9.42216 3.80636 9.75067L3.85714 9.8786C3.96486 10.182 3.99202 10.5094 3.93429 10.8278C3.86833 11.1913 3.69454 11.5266 3.43624 11.7907L3.39034 11.8366L2.3298 10.7761L2.36398 10.7419C2.41267 10.692 2.44522 10.6288 2.45773 10.5602C2.47019 10.4915 2.46248 10.4201 2.43429 10.3561L3.17452 10.029L2.43038 10.3483C2.4035 10.2859 2.35911 10.2326 2.30245 10.195C2.27404 10.1762 2.24291 10.1618 2.21066 10.152L2.11007 10.1364H1.99972C1.4473 10.1363 0.917685 9.91669 0.527061 9.52606C0.136459 9.13539 -0.0832762 8.60586 -0.0832901 8.05341C-0.0832901 7.50087 0.136361 6.97047 0.527061 6.57977C0.917657 6.18934 1.44744 5.97048 1.99972 5.9704H2.04269C2.11283 5.96872 2.18092 5.94579 2.238 5.90497C2.29509 5.86411 2.33877 5.8068 2.363 5.74091C2.36843 5.72617 2.37424 5.71133 2.38058 5.69696C2.40868 5.63317 2.41734 5.56244 2.40499 5.49384C2.39565 5.44234 2.37477 5.39337 2.34444 5.35126L2.31026 5.31122L2.27608 5.27704C2.08288 5.08381 1.92959 4.85367 1.82491 4.60126C1.72008 4.34836 1.66574 4.07717 1.66573 3.80341C1.66573 3.52962 1.72007 3.25847 1.82491 3.00555C1.92967 2.75292 2.08265 2.52312 2.27608 2.32977L2.42745 2.19208C2.5855 2.06226 2.76226 1.95626 2.95187 1.87762C3.20468 1.77282 3.47605 1.71946 3.74972 1.71942C4.0234 1.71942 4.29474 1.77286 4.54757 1.87762C4.80048 1.98247 5.03084 2.13607 5.22433 2.32977L5.25753 2.36395L5.29757 2.39716C5.33979 2.42769 5.38845 2.44832 5.44015 2.4577C5.50896 2.47018 5.58027 2.4625 5.64425 2.43427C5.68316 2.4171 5.72333 2.40355 5.76437 2.39325C5.80043 2.36817 5.83359 2.33937 5.85812 2.30243C5.89532 2.24625 5.91594 2.18032 5.91671 2.11298V1.99969C5.9168 1.44728 6.13644 0.917662 6.52706 0.527039C6.91769 0.136415 7.4473 -0.0832269 7.99972 -0.083313C8.55225 -0.083313 9.08265 0.136338 9.47335 0.527039C9.86387 0.917647 10.0836 1.44735 10.0837 1.99969V2.05731L10.0984 2.15692C10.1081 2.18926 10.1225 2.22024 10.1413 2.24872C10.16 2.277 10.183 2.30236 10.2087 2.32391L10.2956 2.37762L10.3025 2.38055L10.3523 2.39813C10.4023 2.41176 10.4551 2.41429 10.5066 2.40497C10.5754 2.39249 10.6392 2.35914 10.6892 2.31024L10.7234 2.27606C10.9167 2.08264 11.1465 1.92962 11.3991 1.82489C11.652 1.72005 11.9232 1.66571 12.197 1.66571C12.4707 1.66575 12.742 1.72008 12.9948 1.82489C13.2472 1.92958 13.4764 2.08286 13.6696 2.27606L13.8073 2.42743C13.9373 2.58559 14.0441 2.76206 14.1228 2.95184C14.2276 3.20465 14.2809 3.47602 14.281 3.74969C14.281 4.02333 14.2275 4.29475 14.1228 4.54755C14.018 4.8002 13.8631 5.02899 13.6696 5.22235L13.6706 5.22333L13.6364 5.25751L13.6023 5.29755C13.5718 5.33971 13.5511 5.38854 13.5417 5.44012C13.5293 5.50891 13.5379 5.58027 13.5661 5.64423C13.5832 5.68305 13.5959 5.7234 13.6062 5.76434C13.6313 5.80061 13.6608 5.83347 13.698 5.85809C13.7548 5.89572 13.8212 5.91635 13.8894 5.91669H13.9997C14.5523 5.91669 15.0826 6.13634 15.4734 6.52704C15.8639 6.91765 16.0836 7.44735 16.0837 7.99969C16.0837 8.55223 15.8641 9.08263 15.4734 9.47333C15.0826 9.86403 14.5523 10.0837 13.9997 10.0837H13.9431L13.8425 10.0983C13.8103 10.1081 13.7791 10.1225 13.7507 10.1413C13.6939 10.179 13.6496 10.2329 13.6228 10.2956L12.9577 10.0104L13.6198 10.3024C13.5916 10.3664 13.583 10.4377 13.5954 10.5065C13.6079 10.5753 13.6403 10.6392 13.6892 10.6891L13.7224 10.7224C13.9161 10.9158 14.0707 11.1462 14.1755 11.3991C14.2803 11.652 14.3347 11.9232 14.3347 12.197C14.3346 12.4706 14.2803 12.742 14.1755 12.9948C14.0708 13.2472 13.9165 13.4754 13.7234 13.6686L13.7243 13.6696C13.5308 13.8633 13.3005 14.0179 13.0476 14.1227C12.7948 14.2275 12.5234 14.2809 12.2497 14.2809C11.976 14.2809 11.7047 14.2275 11.4519 14.1227C11.199 14.0179 10.9695 13.8633 10.7761 13.6696L10.7419 13.6364L10.7028 13.6022C10.6607 13.5718 10.6118 13.5511 10.5603 13.5417C10.4915 13.5292 10.4201 13.5379 10.3562 13.5661L10.3493 13.569L10.0534 12.8796L10.0359 12.8405L10.3493 13.569C10.2867 13.5959 10.2327 13.6411 10.195 13.6979C10.1574 13.7548 10.1368 13.8212 10.1364 13.8893V13.9997C10.1364 14.5522 9.91679 15.0826 9.52608 15.4733C9.13543 15.8638 8.6058 16.0837 8.05343 16.0837C7.50089 16.0837 6.9705 15.864 6.5798 15.4733C6.18918 15.0826 5.97042 14.5522 5.97042 13.9997ZM1.71944 12.2497C1.71949 11.976 1.77285 11.7047 1.87765 11.4518C1.98247 11.1991 2.13621 10.9695 2.3298 10.7761L3.39034 11.8366C3.33611 11.8908 3.29274 11.9562 3.26339 12.027C3.23417 12.0976 3.21949 12.1733 3.21944 12.2497C3.21944 12.3263 3.23406 12.4025 3.26339 12.4733C3.29275 12.5441 3.33611 12.6086 3.39034 12.6628L3.47921 12.736C3.51081 12.7571 3.54452 12.7751 3.5798 12.7897C3.65061 12.8191 3.72677 12.8347 3.80343 12.8347C3.88007 12.8346 3.95626 12.8191 4.02706 12.7897C4.09775 12.7604 4.16243 12.7179 4.21651 12.6638L5.27706 13.7233C5.08363 13.9169 4.85409 14.0707 4.60128 14.1755C4.34838 14.2803 4.07719 14.3346 3.80343 14.3347C3.52965 14.3347 3.25849 14.2803 3.00558 14.1755C2.75275 14.0707 2.52324 13.9169 2.3298 13.7233C2.13609 13.5298 1.98249 13.3005 1.87765 13.0475C1.77288 12.7947 1.71944 12.5234 1.71944 12.2497ZM2.43429 10.3561L2.43038 10.3483L3.11983 10.0534L2.43429 10.3561Z" fill="#60758F"/>
</g>
<defs>
<clipPath id="clip0_1169_1868">
<rect width="16" height="16" fill="white"/>
</clipPath>
</defs>
</svg>
